P3
80 40
255
133 154 181
134 154 181
133 154 181
132 153 181
133 154 181
133 154 181
133 154 181
132 153 181
138 156 181
136 155 181
133 154 181
139 157 181
131 153 181
134 154 181
134 154 181
130 152 181
133 154 181
134 154 181
133 154 181
133 154 181
130 152 181
133 154 181
134 154 181
135 155 181
134 154 181
133 154 181
135 155 181
135 155 181
134 154 181
134 154 181
132 153 181
134 155 181
132 153 181
133 154 181
135 155 181
137 156 181
134 154 181
136 155 181
134 154 181
133 154 181
133 154 181
134 154 181
133 154 181
132 153 181
133 154 181
135 155 181
132 153 181
132 151 176
132 153 181
134 154 181
140 157 181
132 153 181
133 154 181
134 154 181
133 154 181
132 153 181
132 153 181
135 155 181
134 154 181
135 155 181
132 153 181
139 157 181
133 154 181
132 153 181
135 155 181
133 154 181
137 156 181
134 154 181
134 154 181
133 154 181
134 154 181
137 156 181
134 154 181
134 154 181
136 155 181
133 154 181
135 155 181
132 153 181
134 154 181
131 153 181
132 153 181
135 155 181
134 154 181
132 153 181
133 154 181
133 154 181
132 153 181
134 154 181
135 155 181
132 153 181
136 155 181
132 153 181
134 154 181
131 153 181
132 153 181
133 154 181
133 154 181
132 153 181
133 154 181
131 153 181
132 153 181
133 154 181
135 155 181
135 155 181
131 153 181
138 157 181
133 154 181
134 154 181
136 155 181
131 153 181
135 155 181
134 154 181
134 154 181
132 153 181
134 154 181
133 154 181
135 155 181
135 155 181
133 154 181
132 153 181
132 153 181
135 155 181
133 154 181
133 154 181
133 154 181
133 154 181
131 153 181
130 152 181
138 156 181
132 153 181
135 155 181
136 156 181
133 154 181
134 154 181
136 155 181
134 154 181
135 155 181
135 155 181
133 154 181
134 154 181
137 156 181
134 154 181
133 154 181
134 154 181
136 156 181
133 154 181
132 153 181
136 155 181
136 155 181
131 153 181
135 155 181
136 155 181
137 156 181
135 155 181
135 155 181
133 154 181
132 153 181
132 153 181
133 154 181
133 154 181
134 154 181
132 153 181
133 154 181
135 155 181
132 153 181
134 154 181
134 154 181
134 154 181
134 154 181
137 156 181
135 155 181
134 154 181
137 156 181
133 154 181
135 155 181
135 155 181
136 155 181
133 154 181
137 156 181
134 154 181
133 154 181
130 152 181
135 155 181
133 154 181
133 154 181
132 153 181
132 153 181
133 154 181
133 154 181
135 155 181
133 154 181
135 155 181
132 153 181
131 153 181
133 154 181
134 154 181
132 153 181
134 154 181
132 153 181
134 155 181
132 153 181
134 155 181
134 154 181
137 156 181
134 154 181
134 154 181
131 153 181
133 154 181
134 155 181
135 155 181
134 154 181
137 156 181
134 154 181
134 154 181
136 155 181
133 154 181
133 154 181
133 154 181
133 154 181
134 154 181
132 153 181
132 153 181
134 155 181
134 154 181
133 154 181
136 155 181
133 154 181
132 153 181
138 156 181
135 155 181
134 154 181
133 154 181
134 154 181
136 155 181
132 153 181
133 154 181
133 154 181
137 156 181
133 154 181
134 154 181
134 154 181
132 153 181
132 153 181
136 155 181
134 154 181
136 155 181
135 155 181
132 153 181
135 155 181
133 154 181
134 154 181
134 154 181
135 155 181
135 155 181
131 153 181
133 154 181
131 153 181
135 155 181
137 156 181
132 153 181
134 154 181
133 154 181
136 155 181
130 152 181
133 154 181
133 154 181
133 154 181
133 154 181
133 154 181
132 153 181
136 155 181
132 153 181
134 154 181
133 154 181
134 154 181
134 154 181
136 155 181
132 153 181
135 155 181
131 153 181
133 154 181
132 153 181
135 155 181
134 154 181
136 155 181
136 155 181
134 154 181
134 154 181
135 155 181
134 154 181
135 155 181
135 155 181
131 153 181
135 155 181
137 156 181
132 153 181
135 155 181
136 155 181
133 154 181
132 153 181
133 154 181
134 154 181
135 155 181
134 154 181
135 155 181
133 154 181
132 153 181
131 153 181
132 154 181
132 153 181
133 154 181
133 154 181
134 154 181
134 155 181
133 154 181
135 155 181
138 156 181
135 155 181
133 154 181
133 154 181
134 154 181
135 155 181
138 156 181
135 155 181
135 155 181
133 154 181
133 154 181
134 154 181
135 155 181
135 155 181
135 155 181
133 154 181
136 155 181
133 154 181
133 154 181
136 156 181
135 155 181
134 154 181
135 155 181
134 154 181
138 156 181
133 154 181
133 154 181
134 154 181
136 155 181
135 155 181
130 150 176
133 154 181
134 154 181
132 153 181
136 156 181
135 155 181
132 153 181
133 154 181
134 154 181
131 153 181
134 154 181
131 153 181
135 155 181
131 153 181
135 155 181
134 154 181
135 155 181
133 154 181
136 155 181
133 154 181
131 153 181
133 154 181
134 154 181
135 155 181
134 154 181
136 155 181
131 153 181
134 154 181
133 154 181
134 154 181
131 153 181
134 154 181
133 154 181
134 154 181
130 152 181
133 154 181
133 154 181
138 156 181
131 153 181
133 154 181
133 154 181
132 153 181
134 154 181
135 155 181
134 154 181
132 153 181
132 153 181
132 153 181
135 155 181
131 153 181
129 152 181
132 151 176
135 155 181
132 153 181
134 154 181
135 155 181
133 154 181
134 154 181
135 155 181
132 153 181
135 155 181
135 155 181
135 155 181
133 154 181
133 154 181
134 154 181
134 154 181
133 154 181
136 155 181
136 155 181
131 153 181
132 153 181
132 153 181
135 155 181
135 155 181
132 153 181
135 155 181
130 148 173
128 134 149
128 139 157
133 154 181
137 156 181
133 154 181
134 154 181
133 154 181
133 154 181
134 154 181
134 154 181
135 155 181
134 154 181
132 153 181
136 155 181
136 156 181
136 155 181
133 154 181
134 155 181
134 154 181
134 154 181
132 153 181
133 154 181
134 154 181
135 155 181
134 154 181
131 153 181
132 153 181
133 154 181
135 155 181
134 154 181
133 151 176
132 153 181
135 155 181
134 154 181
133 154 181
134 154 181
134 154 181
131 150 176
135 155 181
133 154 181
136 155 181
134 154 181
135 155 181
135 155 181
129 148 172
135 155 181
134 154 181
133 154 181
137 156 181
134 154 181
136 155 181
134 154 181
133 154 181
133 154 181
136 155 181
135 155 181
134 154 181
131 153 181
134 154 181
134 154 181
134 155 181
132 153 181
133 154 181
134 154 181
133 154 181
132 153 181
133 154 181
133 154 181
132 153 181
136 155 181
133 154 181
133 154 181
133 154 181
131 152 181
134 154 181
133 154 181
128 130 140
124 117 120
124 106 95
123 99 80
118 97 80
121 98 80
124 105 95
127 134 149
133 145 165
135 155 181
137 156 181
134 154 181
134 154 181
133 154 181
133 154 181
133 154 181
135 155 181
133 154 181
135 155 181
132 153 181
134 154 181
133 154 181
132 153 181
132 153 181
134 154 181
131 153 181
133 154 181
133 154 181
135 155 181
133 154 181
132 153 181
133 154 181
133 154 181
132 153 181
133 154 181
134 154 181
134 154 181
134 154 181
135 155 181
136 155 181
133 154 181
132 153 181
133 154 181
135 155 181
134 154 181
134 154 181
137 156 181
133 154 181
134 154 181
133 154 181
133 154 181
133 154 181
133 154 181
134 154 181
133 154 181
136 155 181
136 155 181
134 154 181
133 154 181
132 153 181
132 153 181
132 153 181
133 154 181
133 154 181
137 156 181
135 155 181
134 154 181
135 155 181
132 153 181
129 149 176
131 153 181
136 155 181
134 154 181
131 153 181
134 154 181
133 154 181
135 155 181
133 154 181
134 154 181
120 104 95
116 95 78
123 98 80
123 99 80
124 99 80
122 98 80
122 98 80
126 100 80
123 98 80
120 98 80
130 135 149
135 155 181
131 153 181
134 155 181
132 153 181
136 155 181
132 153 181
132 153 181
132 153 181
133 154 181
134 154 181
134 154 181
135 155 181
135 155 181
135 155 181
133 154 181
136 155 181
133 154 181
134 154 181
133 154 181
137 156 181
135 155 181
133 154 181
132 153 181
135 155 181
135 155 181
134 154 181
134 154 181
133 154 181
132 153 181
133 154 181
134 154 181
135 155 181
134 154 181
135 155 181
132 154 181
133 154 181
135 155 181
134 154 181
134 154 181
114 129 167
100 110 153
134 154 181
132 153 181
134 155 181
136 156 181
135 155 181
135 155 181
134 154 181
133 154 181
134 154 181
134 154 181
134 154 181
133 154 181
135 155 181
135 155 181
135 155 181
136 155 181
137 156 181
135 155 181
136 156 181
136 155 181
133 154 181
132 153 181
134 155 181
136 155 181
135 155 181
135 155 181
133 150 173
129 101 80
122 98 80
121 95 76
125 99 80
117 96 78
119 95 77
116 93 77
124 99 80
122 98 80
121 98 80
126 100 80
120 94 77
131 120 120
134 154 181
135 155 181
133 154 181
134 154 181
136 155 181
136 155 181
133 154 181
132 153 181
134 154 181
136 156 181
133 154 181
135 155 181
134 155 181
133 154 181
134 154 181
134 154 181
134 154 181
134 154 181
136 155 181
133 154 181
132 153 181
133 154 181
132 153 181
138 157 181
133 153 174
131 150 168
134 154 181
132 153 181
134 154 181
133 139 162
142 75 85
133 154 181
133 154 181
131 153 181
135 155 181
134 155 181
134 154 181
120 138 168
64 54 126
74 72 132
113 128 167
134 154 181
139 160 187
134 154 181
134 154 181
132 153 181
133 154 181
133 154 181
137 156 181
136 156 181
135 155 181
133 154 181
136 155 181
133 154 181
135 155 181
131 153 181
133 154 181
133 154 181
133 154 181
132 153 181
134 154 181
133 154 181
132 153 181
132 153 181
135 155 181
135 155 181
118 106 105
124 99 80
128 100 80
123 99 80
118 94 76
118 95 78
127 100 80
120 95 76
123 99 80
121 98 80
126 100 80
110 88 70
117 96 78
127 100 80
125 111 107
134 154 181
134 154 181
138 157 181
132 153 181
134 154 181
134 154 181
135 155 181
134 154 181
130 151 177
127 149 177
133 154 181
134 154 181
133 154 181
131 152 181
135 138 165
135 147 173
133 154 181
110 168 142
71 167 67
123 153 162
132 153 181
134 154 181
134 154 181
133 140 139
135 147 189
132 152 183
133 154 181
133 154 181
139 91 101
129 75 89
114 108 136
131 151 178
133 154 181
133 154 181
134 154 181
142 129 170
123 98 152
92 51 122
79 85 128
120 138 169
141 162 187
175 199 221
173 204 232
124 129 154
120 122 146
134 155 181
139 157 181
133 154 181
134 155 181
136 155 181
133 154 181
135 155 181
135 155 181
134 154 181
134 154 181
133 154 181
138 156 181
135 155 181
133 154 181
135 155 181
134 154 181
132 153 181
133 154 181
134 154 181
130 134 149
116 93 76
122 97 78
130 100 78
122 97 78
123 97 78
122 96 78
122 97 78
118 94 76
126 100 80
124 99 80
117 92 74
122 96 76
121 94 74
116 91 72
122 103 92
122 135 155
133 154 181
116 160 153
99 167 120
148 168 190
158 179 206
139 156 181
149 168 191
159 185 200
137 181 168
137 167 179
131 161 173
136 151 175
140 91 105
131 12 64
128 138 162
125 135 145
65 136 63
38 97 22
77 154 87
133 154 181
133 154 181
136 156 189
134 150 209
127 144 231
141 158 184
134 152 176
133 154 181
120 129 151
92 105 134
100 115 147
125 143 170
135 155 181
134 155 181
134 154 181
85 52 100
64 76 102
123 121 156
128 140 166
133 154 181
129 147 171
130 135 156
123 125 146
87 24 66
88 23 65
122 130 154
132 153 181
136 155 181
136 155 181
135 155 181
132 153 181
134 154 181
132 153 181
138 156 181
133 154 181
137 156 181
134 154 181
132 153 181
132 153 181
134 154 181
136 155 181
139 157 181
138 158 182
133 154 181
114 91 72
129 101 80
127 100 80
123 97 78
95 79 63
121 96 77
128 101 80
117 89 71
123 97 78
118 93 74
104 84 67
115 90 72
122 93 73
119 92 72
112 93 72
122 97 78
127 128 139
134 154 181
105 169 122
149 180 182
152 172 198
134 154 181
137 150 173
121 138 163
139 151 173
116 68 68
121 106 113
125 116 125
139 146 165
150 155 171
92 55 73
98 92 93
97 88 58
109 103 80
58 122 62
127 152 172
130 147 173
85 84 117
103 111 138
89 98 146
154 167 201
184 195 220
173 184 207
129 147 171
92 114 150
49 81 129
75 87 112
119 135 160
132 153 181
134 154 181
125 138 165
69 74 101
100 160 168
131 164 178
160 152 185
174 157 186
108 108 134
103 79 102
128 110 133
74 52 73
79 61 81
129 146 171
136 155 181
135 155 181
133 154 181
134 154 181
134 154 181
110 98 163
104 86 160
119 120 169
131 153 181
141 158 190
137 148 184
131 153 181
134 154 181
131 153 181
138 158 182
158 182 194
155 182 196
138 149 167
125 96 76
117 92 71
115 92 73
109 88 72
123 97 78
115 96 73
123 96 76
113 87 68
121 94 76
117 94 76
108 86 68
128 100 80
114 91 75
115 91 73
104 84 66
119 93 74
115 99 89
138 155 178
133 151 176
130 148 171
140 161 189
129 148 171
142 163 189
142 162 189
137 155 181
135 155 181
132 136 157
129 121 138
141 140 158
149 158 175
135 136 154
110 113 120
74 70 43
74 86 90
91 118 141
128 149 171
101 114 141
51 15 65
53 16 71
76 99 125
71 131 156
93 123 138
133 139 159
125 148 179
40 84 141
31 92 159
100 126 162
144 164 189
143 163 189
130 147 173
108 119 144
95 109 129
75 123 132
115 114 135
142 124 151
169 141 166
105 108 130
186 167 181
171 165 188
168 158 173
102 110 131
101 116 130
104 120 133
118 136 156
135 155 181
135 155 181
123 130 169
83 21 130
83 21 132
101 86 146
137 158 188
138 165 206
158 162 212
145 148 185
134 154 181
133 154 181
137 158 182
142 136 144
126 19 33
112 42 41
124 97 78
123 96 75
128 98 76
119 92 73
112 88 68
113 91 72
119 94 75
107 82 67
119 93 74
107 83 65
116 91 72
117 90 71
112 88 70
120 95 76
122 94 75
110 86 70
142 149 164
144 164 189
151 171 198
112 125 124
108 124 142
113 123 133
138 160 189
131 153 181
133 153 181
130 148 172
138 161 189
135 155 181
136 160 184
131 114 128
151 155 176
142 155 174
66 104 109
18 123 168
45 130 168
98 131 160
158 161 186
130 121 146
99 93 116
15 101 116
15 102 116
52 114 132
116 131 160
94 84 148
57 41 130
25 69 120
88 112 148
157 175 198
125 114 154
143 163 189
132 153 181
136 155 181
119 140 163
99 111 128
119 113 143
106 126 172
83 124 181
104 113 142
60 84 127
110 124 156
117 134 155
66 75 72
76 85 81
77 82 93
134 154 181
135 155 181
108 116 120
84 75 94
72 69 107
149 161 196
184 193 242
146 158 196
129 148 180
125 139 170
131 153 181
134 154 181
126 146 170
123 155 151
119 166 156
111 108 99
117 91 72
108 84 66
121 92 73
124 96 76
111 87 68
108 84 67
115 91 72
119 93 73
114 88 70
119 91 71
106 80 63
114 89 70
112 88 70
88 65 52
116 91 72
117 112 116
160 180 205
143 163 189
114 115 115
103 87 23
121 122 116
118 132 151
121 144 162
128 147 172
138 160 189
129 147 172
141 162 189
139 161 189
133 154 181
136 155 181
127 146 172
134 144 162
74 160 89
20 121 129
17 115 154
85 134 166
144 145 157
186 174 197
144 130 150
72 107 127
117 69 118
134 68 126
115 59 119
64 16 107
71 10 124
100 114 148
122 133 162
137 70 127
132 44 125
140 86 147
127 152 177
129 148 174
133 150 177
115 130 153
101 123 165
51 108 175
48 106 171
59 84 121
60 74 116
70 81 117
114 133 157
64 73 78
74 84 86
119 136 154
133 154 181
108 118 147
84 76 44
67 60 36
108 116 138
164 168 205
169 171 212
161 164 200
123 131 155
117 126 145
120 125 143
126 138 162
114 123 146
88 118 111
102 139 127
96 118 108
99 77 62
109 85 68
114 89 70
113 88 68
110 86 69
115 90 68
94 75 58
113 88 70
117 90 71
104 83 66
104 84 64
113 88 70
107 85 67
99 80 64
97 87 78
145 156 175
133 149 169
122 138 152
126 108 30
137 117 32
136 138 130
132 153 181
123 144 163
138 161 189
123 138 163
125 146 171
122 138 163
90 98 115
115 122 143
105 119 141
126 140 164
145 164 189
127 161 164
62 120 117
74 105 131
136 155 181
119 127 144
120 114 132
147 79 91
124 77 105
48 33 117
106 50 106
110 72 114
73 58 102
99 93 126
143 154 174
147 155 174
104 48 97
106 95 141
83 117 152
65 160 186
132 153 181
134 154 181
128 148 174
127 148 177
41 87 139
57 92 141
55 56 91
47 18 70
52 30 80
114 127 163
121 140 163
83 94 105
114 120 141
100 102 157
82 70 139
72 63 115
74 71 64
128 147 172
105 114 141
126 131 168
127 132 168
89 75 81
89 53 41
90 53 41
124 138 161
123 137 162
101 130 135
83 113 111
88 106 118
103 80 61
98 79 66
100 75 62
118 93 74
102 82 65
112 87 71
120 94 74
93 77 59
99 76 60
105 84 64
109 85 67
94 79 61
81 62 48
113 86 68
103 96 97
115 132 151
114 131 151
136 125 65
151 138 87
131 120 85
134 151 172
128 150 172
104 124 141
105 125 141
60 86 85
98 114 130
110 130 151
116 49 76
127 84 109
106 93 110
132 148 172
135 150 172
103 122 139
131 153 177
117 142 162
132 147 170
126 137 159
138 73 79
163 42 28
150 67 62
124 101 121
165 168 175
175 177 181
170 175 181
167 173 181
166 173 181
166 173 181
168 174 181
167 172 177
168 176 181
122 166 180
154 178 192
157 171 188
138 156 179
110 129 154
107 125 150
85 102 127
100 113 139
71 59 97
149 163 225
136 151 210
147 163 205
126 146 171
130 145 171
78 65 132
83 69 138
68 56 114
102 82 98
129 106 112
125 133 156
108 118 143
129 146 171
88 86 100
77 46 34
66 40 52
103 94 145
109 112 149
116 136 157
94 110 128
103 117 132
98 75 86
93 72 58
114 89 71
99 76 60
97 74 58
114 88 72
90 72 57
112 91 72
106 84 67
116 91 72
101 79 62
92 67 51
78 63 50
88 70 57
124 130 157
83 92 101
120 139 162
152 161 163
137 124 67
125 143 168
133 154 181
126 144 163
88 131 122
64 111 92
66 120 95
135 157 175
134 150 172
129 88 109
126 53 83
106 64 89
96 102 115
95 103 117
90 102 117
138 167 186
126 146 171
131 153 181
132 153 181
123 138 164
159 135 135
178 170 171
167 173 181
164 172 181
161 170 181
158 169 181
158 169 181
158 169 181
158 169 181
160 170 181
163 171 181
166 173 181
172 176 181
180 181 183
182 185 191
134 145 168
135 155 181
121 138 163
112 129 153
126 145 172
102 110 144
132 138 185
154 163 227
111 125 161
127 146 172
128 146 171
92 102 131
51 41 87
73 54 79
109 77 74
106 75 73
117 113 127
133 154 181
144 152 152
156 146 101
81 77 84
82 43 110
86 45 115
85 61 114
129 148 172
110 129 151
120 91 141
123 76 120
81 65 52
89 70 55
85 66 53
90 67 52
105 82 65
68 61 46
82 65 54
90 75 57
105 80 63
92 77 62
110 85 67
106 84 67
101 76 61
100 112 122
137 153 167
131 153 174
89 145 122
99 129 120
135 155 181
132 153 181
128 147 172
98 142 135
28 117 60
74 137 99
22 76 40
101 113 139
118 87 117
138 89 118
140 90 114
70 74 81
68 73 81
72 78 87
112 148 156
135 155 181
121 138 164
137 145 164
146 152 167
174 177 181
169 174 181
163 171 181
158 169 181
156 168 181
154 167 181
154 167 181
153 166 181
153 167 181
155 167 181
157 168 181
159 169 181
163 171 181
170 175 181
177 178 181
137 145 154
127 146 172
133 154 181
146 146 163
165 105 70
159 97 64
110 107 143
101 114 158
124 139 174
135 155 181
127 146 172
128 147 173
80 142 192
50 148 208
67 104 140
93 66 65
118 125 144
144 147 142
174 151 61
166 135 21
111 112 115
74 41 110
65 36 96
50 27 74
136 155 181
136 156 181
94 75 112
102 60 117
77 60 67
93 70 55
85 64 49
103 83 65
85 65 51
69 53 42
79 61 51
74 59 47
79 76 60
84 67 54
82 67 54
92 73 60
99 78 62
68 102 126
121 148 175
120 142 178
82 177 130
99 181 132
143 163 189
118 131 152
109 125 143
100 117 119
65 135 101
119 150 147
140 159 181
117 112 175
110 108 161
106 119 141
175 156 205
91 81 87
81 64 51
83 73 72
102 123 134
115 167 159
132 153 181
143 157 176
174 177 181
168 174 181
163 171 181
159 169 181
156 168 181
154 167 181
152 166 181
152 166 181
151 165 181
152 166 181
152 166 181
154 167 181
156 168 181
159 169 181
164 172 181
171 175 181
174 176 181
141 155 174
131 151 179
143 109 103
171 90 35
184 101 41
161 102 78
116 133 162
106 115 162
107 123 176
131 153 181
92 126 132
21 126 169
21 125 175
19 115 162
81 88 102
113 129 152
129 129 115
147 125 20
143 124 19
116 106 59
74 87 105
79 106 111
82 114 115
129 147 172
128 147 171
122 138 164
69 40 78
97 100 117
71 57 45
79 63 51
67 55 42
62 61 47
80 63 51
72 68 52
86 69 57
84 71 56
96 76 60
67 52 39
78 64 52
73 52 42
172 192 211
149 127 131
83 107 180
79 126 181
113 98 116
127 111 148
136 116 149
101 103 117
123 126 106
135 155 181
43 14 80
116 131 154
53 40 80
67 55 106
135 152 173
116 124 146
79 63 48
104 96 95
92 75 61
142 146 170
94 191 134
127 154 159
172 170 172
172 176 181
165 172 181
162 170 181
159 169 181
156 168 181
154 167 181
152 166 181
152 166 181
151 166 181
152 166 181
152 166 181
154 167 181
156 168 181
158 169 181
163 171 181
166 173 181
172 176 181
161 166 172
136 155 181
137 123 130
119 63 25
110 63 26
128 133 152
69 70 163
56 51 157
51 47 158
109 123 176
112 149 48
94 126 100
52 121 175
88 120 165
128 147 172
132 153 181
120 131 140
113 96 15
108 98 58
115 110 104
101 148 134
86 141 118
90 149 125
87 114 117
127 141 167
132 153 181
120 133 155
120 131 159
81 91 85
44 42 32
48 35 27
57 46 36
74 56 45
69 56 42
84 67 54
51 46 32
74 59 49
73 57 46
61 46 37
78 78 86
191 201 217
209 222 243
204 218 237
144 132 159
118 115 142
118 140 171
108 115 145
164 194 203
138 171 179
99 132 145
73 124 125
47 91 86
39 85 89
86 75 118
156 167 188
97 83 66
95 78 76
94 65 55
109 90 74
194 209 229
42 152 61
148 155 153
174 176 181
169 174 181
166 173 181
162 171 181
159 169 181
157 168 181
155 167 181
154 167 181
153 166 181
153 166 181
153 166 181
154 167 181
155 168 181
157 168 181
160 170 181
162 171 181
166 173 181
170 175 181
177 178 181
154 156 162
98 128 122
99 82 83
118 124 140
130 147 171
44 41 131
44 40 135
49 44 143
91 104 148
138 172 14
115 89 119
115 75 140
116 75 136
116 117 147
123 143 168
126 141 161
124 141 162
118 138 161
120 133 154
68 107 88
96 159 131
149 167 156
146 162 157
116 131 152
105 120 141
142 135 136
140 121 109
144 123 109
71 70 71
67 108 116
45 184 194
53 177 187
51 116 124
50 40 33
41 38 31
40 32 26
43 32 26
35 27 22
110 123 140
144 157 173
207 225 243
209 226 249
213 228 249
221 235 255
212 227 247
196 209 230
221 235 255
205 216 236
201 214 239
178 207 221
195 210 229
199 215 236
201 211 233
202 213 230
108 105 111
82 76 71
113 103 100
94 68 51
190 208 224
79 84 70
171 172 174
175 177 181
169 174 181
166 173 181
164 172 181
161 170 181
159 169 181
157 168 181
157 168 181
156 168 181
156 168 181
156 168 181
157 168 181
159 169 181
159 169 181
161 170 181
163 171 181
167 173 181
170 175 181
175 177 181
180 180 181
55 137 83
114 147 155
127 147 175
117 155 152
93 150 122
35 33 108
110 124 168
134 148 172
99 135 112
105 118 106
89 60 108
98 63 112
113 116 149
133 154 181
128 147 172
132 153 181
115 130 153
124 144 165
100 118 132
85 107 96
186 191 186
173 175 170
133 129 122
99 111 129
119 104 88
124 107 97
128 114 102
91 88 85
58 134 143
46 185 197
42 171 173
42 166 171
11 29 26
47 53 59
64 71 80
47 50 57
54 54 60
67 74 89
145 163 181
200 218 242
209 226 249
215 232 255
218 234 255
211 227 249
204 220 242
219 234 255
219 234 255
219 235 255
220 235 255
205 220 241
219 234 255
218 234 255
175 181 194
121 108 102
125 115 115
116 89 70
154 157 169
168 186 210
168 167 167
179 179 181
175 177 181
171 175 181
168 174 181
166 173 181
164 172 181
162 171 181
161 170 181
160 170 181
159 169 181
160 170 181
159 169 181
160 170 181
161 170 181
162 171 181
164 172 181
165 172 181
169 174 181
172 176 181
175 177 181
180 179 181
96 122 114
89 134 123
90 190 69
87 192 44
84 191 42
104 163 98
118 132 155
103 119 147
162 7 85
156 6 80
136 30 88
79 66 105
107 116 139
106 119 140
89 97 116
129 148 172
130 152 181
123 139 165
121 141 164
102 119 111
116 107 105
120 128 120
122 125 126
116 131 153
83 77 77
96 84 76
85 76 69
86 90 96
59 143 152
46 178 185
36 149 153
55 165 164
117 132 152
90 100 115
78 110 86
73 111 66
59 99 33
95 118 116
104 109 128
192 214 237
211 230 255
208 227 249
214 231 255
216 232 255
215 232 255
216 233 255
209 226 249
209 226 249
217 233 255
216 233 255
204 223 243
210 226 249
184 190 204
121 94 74
110 103 99
123 95 78
177 194 216
135 151 171
167 161 161
180 180 181
178 179 181
174 177 181
172 176 181
170 175 181
168 173 181
167 173 181
166 173 181
165 172 181
164 172 181
165 172 181
165 172 181
164 172 181
164 172 181
166 173 181
168 174 181
169 174 181
171 175 181
174 177 181
177 178 181
181 180 181
159 156 158
95 127 132
76 171 37
93 138 67
115 102 99
114 101 93
132 134 147
112 131 164
157 6 80
135 5 71
114 4 58
86 91 110
73 70 80
75 73 81
72 70 78
112 130 153
132 149 172
132 153 181
133 154 181
103 153 148
108 142 127
107 109 105
112 125 141
112 135 156
110 122 138
74 73 76
59 57 62
102 124 138
102 128 148
35 144 152
50 129 104
62 134 85
49 108 71
69 118 105
46 96 50
55 94 31
56 90 30
82 114 86
109 120 147
118 132 156
205 227 255
192 213 235
196 214 237
210 229 255
205 224 249
213 231 255
213 231 255
213 231 255
212 231 255
202 222 243
201 221 243
204 223 245
179 190 205
123 111 107
114 98 88
172 187 209
180 177 199
148 134 136
172 171 171
182 181 181
179 179 181
177 178 181
176 178 181
173 176 181
171 175 181
171 175 181
169 174 181
169 174 181
169 174 181
169 174 181
169 174 181
169 174 181
170 175 181
170 175 181
171 175 181
173 176 181
175 177 181
177 178 181
179 179 181
182 181 181
171 170 170
121 138 163
50 109 25
94 80 72
115 99 93
109 94 88
114 94 88
113 132 158
130 5 66
128 5 66
87 49 69
120 138 163
83 89 100
124 141 164
129 148 173
119 141 160
133 154 181
128 147 171
84 152 136
77 149 125
74 143 121
105 138 146
129 147 169
129 148 174
130 148 172
130 148 173
133 154 181
134 154 181
121 142 166
116 143 157
61 123 65
49 117 73
36 111 77
35 109 73
30 93 64
46 79 24
43 74 25
89 112 116
93 101 142
57 35 118
176 195 228
200 224 254
205 227 255
206 227 255
185 206 231
209 229 255
202 222 249
210 229 255
209 228 255
209 229 255
208 228 255
208 228 255
207 228 255
178 187 204
188 209 236
154 125 143
134 36 38
132 81 78
126 124 126
180 174 176
183 181 181
180 180 181
178 179 181
177 178 181
177 178 181
175 177 181
175 177 181
175 177 181
174 177 181
174 176 181
173 176 181
173 176 181
175 177 181
175 177 181
175 177 181
177 178 181
179 179 181
180 180 181
182 181 181
185 182 181
125 129 134
97 112 128
114 138 151
100 111 122
124 121 70
129 133 61
112 103 59
127 147 173
89 69 87
89 70 85
98 98 117
125 142 164
114 130 152
112 130 153
115 131 153
122 145 164
125 145 172
130 154 173
73 140 118
76 145 125
68 132 110
63 115 99
130 152 181
132 149 172
129 148 172
133 154 181
133 154 181
134 154 181
126 147 172
118 144 155
45 94 51
30 85 53
34 104 71
29 96 64
80 108 91
134 163 153
121 146 130
133 154 165
57 54 95
136 168 196
164 212 238
166 201 225
183 210 239
195 218 248
189 210 238
204 226 255
198 220 249
198 220 249
206 227 255
187 208 236
204 226 255
204 226 255
192 213 242
175 199 220
169 183 204
123 34 37
125 34 37
111 89 87
65 81 82
64 76 85
156 155 157
185 182 181
183 181 181
182 181 181
181 180 181
179 179 181
179 179 181
178 179 181
179 179 181
179 179 181
179 179 181
179 179 181
179 179 181
179 179 181
181 180 181
181 180 181
182 181 181
184 182 181
185 183 181
144 137 137
64 62 75
128 145 167
122 140 163
110 123 142
144 151 47
136 143 45
142 148 46
131 149 172
136 155 181
126 146 172
127 146 171
122 139 163
119 139 156
123 137 154
47 45 51
94 121 121
79 133 109
78 134 109
83 116 121
78 105 116
87 115 125
90 135 132
131 153 181
134 154 181
135 155 181
136 155 181
134 154 181
124 145 171
124 145 171
131 150 172
101 126 132
19 55 35
25 78 53
19 58 43
117 148 127
162 192 183
163 190 178
143 172 163
106 136 140
168 212 226
173 217 238
147 187 201
159 188 217
157 180 210
192 216 249
180 204 236
194 218 249
199 224 255
188 211 242
188 212 242
182 208 236
170 199 222
157 185 203
88 124 94
88 124 94
97 87 68
101 27 31
103 90 101
96 113 115
89 95 104
111 121 127
103 117 120
115 120 122
151 145 150
164 163 163
179 177 176
184 182 181
184 182 181
178 177 176
183 182 181
184 182 181
178 176 176
178 176 176
172 171 171
178 177 176
160 160 161
133 137 141
127 131 134
92 105 127
82 87 93
108 120 125
126 144 166
134 155 181
131 148 153
131 136 42
94 106 33
138 144 45
140 150 91
134 154 181
134 154 181
133 152 175
135 155 181
141 162 189
187 211 242
80 102 109
35 111 126
36 98 149
32 102 116
53 104 77
82 109 118
81 107 115
69 88 98
119 142 164
132 153 181
134 154 181
134 154 181
127 147 172
131 153 181
126 149 172
114 112 169
106 51 167
90 43 143
111 106 156
61 81 85
114 135 125
98 113 115
102 126 115
109 130 123
94 115 125
102 137 149
110 144 163
95 134 140
114 142 165
115 133 161
141 164 194
176 202 236
173 199 232
176 202 236
183 209 242
177 206 236
88 142 119
18 105 34
36 109 46
75 115 78
76 104 80
90 125 98
96 99 115
92 115 121
97 120 125
110 116 125
90 91 107
104 111 121
96 89 113
82 97 78
92 99 115
56 60 56
106 108 99
122 135 125
124 124 131
121 128 135
120 121 128
105 108 115
107 103 121
107 105 112
116 113 132
113 104 118
66 81 110
104 118 128
75 87 83
80 100 96
103 94 106
127 145 163
136 155 181
134 154 172
101 113 65
96 98 31
118 113 38
121 133 130
136 155 181
134 154 181
133 154 181
135 155 181
136 155 181
142 163 189
92 123 164
36 88 144
36 91 150
39 96 156
31 108 103
46 68 66
60 81 88
115 136 156
127 150 174
127 147 171
133 154 181
132 153 181
133 154 181
124 141 163
139 157 181
101 48 156
99 48 151
99 47 149
101 48 156
128 145 171
110 129 142
104 125 112
96 114 109
93 110 109
125 145 166
122 150 169
82 112 120
93 123 135
113 134 156
122 152 178
85 152 172
102 141 160
129 152 181
121 143 167
126 148 176
96 124 135
18 105 33
17 96 31
17 101 33
38 86 45
63 88 68
54 79 65
129 147 171
122 143 162
86 103 108
95 127 117
94 94 104
139 78 122
96 102 116
104 88 101
88 103 116
116 125 132
86 92 99
89 88 91
108 117 114
88 98 93
81 84 89
109 106 115
84 89 95
99 84 96
99 99 114
65 60 131
97 102 120
90 89 106
93 101 107
85 93 90
107 112 123
130 150 176
130 149 171
124 142 162
101 116 128
92 102 100
109 124 140
123 142 162
120 141 162
126 148 172
131 153 181
133 154 181
136 155 181
130 150 172
84 109 141
32 78 126
37 92 148
35 85 134
30 73 116
33 51 57
65 82 91
99 116 135
132 153 181
132 153 181
132 153 181
137 156 181
132 153 181
133 154 181
133 154 181
107 49 158
99 46 150
93 44 139
76 39 125
128 144 166
108 130 150
89 105 115
94 107 117
102 120 138
124 141 162
110 130 149
117 137 156
129 150 174
110 150 171
19 149 162
20 153 166
19 150 161
120 152 176
135 155 181
129 150 176
62 107 84
15 84 27
16 96 31
13 77 25
14 81 26
56 80 63
103 125 128
152 161 186
166 187 228
89 103 110
92 107 112
113 120 127
107 93 111
100 106 114
88 88 95
97 97 107
108 110 122
80 94 111
61 73 92
106 114 123
105 113 117
112 119 127
114 120 127
101 112 118
82 95 100
120 118 142
61 47 119
102 108 121
100 107 116
107 114 121
99 108 115
125 141 161
132 153 181
132 153 181
134 154 181
129 149 176
134 154 181
127 145 171
134 154 181
77 53 83
124 139 164
128 146 173
118 139 164
125 145 171
132 153 181
94 113 133
26 69 110
32 77 125
26 64 105
62 80 103
90 109 124
117 140 162
130 148 172
125 146 172
136 155 181
134 154 181
149 166 196
164 181 228
172 185 231
149 166 196
86 60 131
81 38 123
91 43 139
96 89 138
127 146 175
127 146 173
136 155 181
138 156 181
138 156 181
134 154 181
137 156 179
130 150 176
139 164 187
106 173 197
119 198 224
107 182 200
18 137 144
77 135 147
130 148 171
135 155 181
109 128 141
11 65 21
13 77 24
59 83 82
104 123 140
120 140 162
114 133 152
180 196 233
170 188 227
115 122 136
106 113 121
111 119 127
103 106 114
112 119 127
105 113 121
108 88 110
113 39 98
115 102 121
72 80 88
98 105 113
112 118 124
107 115 124
105 113 121
86 92 97
90 95 103
114 103 136
95 101 116
113 120 127
113 118 124
111 116 122
69 78 84
111 148 161
134 154 181
133 154 181
132 153 181
132 153 181
133 154 181
132 153 181
135 155 181
61 17 67
58 17 71
56 15 73
100 110 134
128 147 173
125 146 173
104 120 141
71 97 114
59 113 139
51 78 105
122 142 168
125 146 173
134 154 181
132 153 181
131 153 181
133 154 181
143 161 189
167 174 214
182 198 250
184 198 250
182 188 228
111 119 147
40 19 67
78 73 112
82 86 116
121 138 164
132 153 181
132 153 179
134 154 181
129 146 175
133 154 181
133 154 181
129 166 178
125 193 198
146 218 245
142 215 245
144 211 233
49 122 130
102 127 148
124 146 171
124 143 164
127 146 171
101 119 134
103 122 140
103 124 140
118 138 161
135 155 181
124 142 163
132 159 185
162 171 196
111 99 75
100 109 113
7 117 126
93 114 123
97 105 111
110 117 124
99 108 117
65 46 55
81 72 83
103 105 108
110 117 124
110 118 127
112 119 127
105 112 119
111 116 121
102 109 118
108 109 116
101 108 116
107 114 121
95 101 110
50 59 63
87 101 105
34 147 126
34 147 124
131 150 176
132 153 181
128 149 176
132 153 181
134 154 181
130 149 174
60 16 72
56 15 71
53 14 69
56 15 71
108 122 147
126 148 172
114 151 177
76 126 153
76 143 172
80 138 166
114 150 177
127 150 176
126 146 171
135 155 181
134 154 181
135 155 181
124 144 171
158 166 202
154 162 199
155 163 202
156 183 199
130 146 179
120 137 164
134 154 181
129 150 176
138 156 181
132 151 176
135 155 181
133 154 181
132 153 181
130 152 181
140 210 204
133 215 210
129 210 204
131 199 194
108 166 182
122 169 179
61 99 109
124 147 173
113 138 160
118 141 166
136 155 181
131 153 181
136 155 181
136 155 181
128 147 171
132 153 181
134 154 181
114 128 154
118 120 124
105 88 52
100 78 52
37 66 67
6 110 118
91 101 110
106 108 110
107 111 116
113 118 124
94 101 109
51 62 73
15 40 56
78 87 96
86 99 126
29 61 122
30 64 130
98 105 120
104 111 118
105 107 108
103 109 114
106 112 118
99 105 112
28 114 95
21 89 74
29 128 111
104 143 156
132 153 181
128 147 172
111 130 153
110 127 148
128 148 172
50 13 65
42 11 54
64 36 107
77 56 151
95 89 169
103 107 168
68 109 135
70 130 156
78 145 172
74 136 161
81 143 165
130 154 180
134 154 181
134 154 181
128 150 176
133 154 181
133 154 181
119 128 167
127 134 168
117 125 162
109 113 151
105 105 146
119 131 163
131 153 181
133 154 181
134 154 181
125 143 167
134 154 181
134 154 181
131 151 175
135 163 184
135 207 194
141 222 210
141 222 210
121 191 172
97 151 161
86 126 143
96 118 136
105 127 146
120 142 166
130 152 175
129 150 176
131 153 181
129 149 174
130 151 179
130 146 166
125 143 169
104 157 183
24 154 188
51 118 125
92 85 52
103 87 52
82 84 83
39 66 69
65 69 69
88 90 93
94 95 100
97 100 104
98 104 110
36 49 57
12 32 41
13 35 47
52 60 80
24 49 93
40 52 82
79 88 112
100 102 105
101 104 108
99 105 112
81 84 87
37 83 75
19 78 62
25 104 86
28 119 105
124 153 177
133 154 181
93 108 124
12 40 45
13 44 51
38 57 72
32 9 43
45 26 76
78 60 158
78 59 159
84 62 161
95 79 167
77 108 149
62 112 136
55 103 123
64 123 141
92 133 157
133 154 181
133 154 181
131 153 181
133 153 180
134 153 180
135 151 179
114 120 148
89 89 118
75 60 106
90 59 127
88 59 127
90 59 127
121 131 164
132 152 180
135 153 180
133 154 181
136 155 181
130 154 180
133 154 181
133 154 181
82 128 129
153 137 175
128 99 146
85 132 120
53 95 91
89 127 142
116 137 158
128 151 175
133 154 181
129 150 176
131 153 181
133 154 181
135 153 176
126 147 172
129 149 173
111 145 168
9 171 207
8 160 194
8 156 182
43 96 97
49 66 54
58 51 30
77 74 67
78 81 79
72 78 81
101 105 110
86 90 92
97 97 98
62 64 66
48 50 52
64 66 68
22 30 43
37 39 47
77 79 85
93 99 107
95 100 105
90 91 92
113 123 134
93 100 111
60 92 94
18 84 66
18 81 65
76 113 116
127 148 173
108 130 149
10 32 36
10 34 40
14 44 50
13 43 50
76 84 103
64 60 110
68 54 144
80 60 156
80 59 153
74 55 146
81 93 138
59 93 113
60 111 132
55 103 123
109 135 160
111 130 155
128 149 175
128 148 173
126 144 173
127 147 175
132 152 180
133 154 181
120 135 163
86 55 119
93 60 127
84 56 120
90 55 120
96 74 130
134 154 181
133 154 181
133 154 181
133 154 181
127 146 171
133 154 181
128 153 178
173 54 166
184 27 175
184 27 175
158 53 158
108 124 149
119 145 170
130 153 180
131 153 181
126 147 172
127 150 175
133 154 181
133 154 181
127 152 177
128 147 171
132 149 171
70 130 151
9 164 197
7 140 171
7 126 154
8 138 157
33 30 20
15 15 8
79 91 105
74 79 87
81 81 82
76 78 74
78 77 77
66 73 82
41 54 70
89 90 93
78 79 81
55 57 64
72 66 68
66 66 86
76 98 163
72 86 131
89 96 102
99 107 112
82 97 109
86 101 113
74 93 94
47 68 69
94 112 126
111 136 156
116 140 160
9 30 33
9 30 37
11 35 42
11 35 41
95 108 131
87 99 127
59 45 118
60 46 125
70 51 137
68 62 115
54 66 92
66 78 98
77 98 117
96 113 133
113 132 155
126 147 173
125 145 172
133 154 181
133 154 181
135 155 181
129 151 176
135 155 181
118 131 161
80 57 118
80 72 144
80 63 130
88 62 128
90 83 128
130 150 176
130 154 178
131 153 181
131 154 180
128 153 178
117 145 161
143 132 168
153 52 153
174 25 162
186 26 169
180 26 170
147 94 158
118 140 162
124 143 164
133 154 181
129 149 170
132 153 181
126 146 171
136 155 181
121 140 164
119 145 170
122 136 153
90 127 147
7 135 158
6 116 138
6 126 150
4 90 110
126 104 148
81 74 90
72 76 81
60 68 74
80 84 93
30 35 23
29 43 56
40 61 83
19 55 83
18 52 79
17 46 71
73 74 76
57 72 116
37 84 186
38 89 200
38 89 200
66 86 149
95 104 115
117 132 148
98 108 120
107 121 138
125 140 159
124 140 162
123 137 156
121 139 162
46 56 64
82 84 114
8 27 32
10 32 37
122 139 166
128 147 173
96 103 142
46 33 90
63 50 109
89 83 125
120 133 161
111 120 149
126 146 171
131 153 181
113 133 158
134 154 181
131 151 176
134 154 181
127 148 173
135 155 181
126 146 172
132 153 181
135 155 181
88 90 157
86 97 189
89 98 189
85 93 181
122 139 164
117 134 158
134 154 181
119 139 161
131 153 181
135 155 181
132 153 181
149 129 174
152 22 146
139 20 137
149 20 133
157 21 138
145 53 144
134 155 181
117 129 152
140 125 158
136 113 151
134 123 153
124 143 167
127 147 174
122 139 161
118 134 149
131 153 181
119 142 166
60 100 119
6 104 126
90 88 134
141 53 145
142 54 145
144 54 145
129 102 148
80 82 84
84 89 94
75 79 88
24 54 74
18 50 75
18 52 77
17 49 74
16 47 73
45 44 46
31 71 166
36 85 196
39 90 200
38 89 200
55 93 182
94 102 108
97 102 109
113 130 144
122 135 161
123 135 151
105 120 141
122 135 156
114 108 135
156 152 205
170 168 243
149 144 204
60 71 83
